<?xml version="1.0" encoding="UTF-8" standalone="no"?>
<svg xmlns:dc="http://purl.org/dc/elements/1.1/" xmlns:cc="http://creativecommons.org/ns#" xmlns:rdf="http://www.w3.org/1999/02/22-rdf-syntax-ns#" xmlns:svg="http://www.w3.org/2000/svg" xmlns="http://www.w3.org/2000/svg" viewBox="0 0 300 84.409303" version="1.1" id="svg22412" height="84.409302" width="300">
  <defs id="defs22414"/>
  <metadata id="metadata22417">
    <rdf:RDF>
      <cc:Work rdf:about="">
        <dc:format>image/svg+xml</dc:format>
        <dc:type rdf:resource="http://purl.org/dc/dcmitype/StillImage"/>
        <dc:title/>
      </cc:Work>
    </rdf:RDF>
  </metadata>
  <g transform="translate(1204.2857,206.98533)" id="layer1">
    <g id="g22345" transform="translate(-820.54524,-190.65019)">
      <path id="path12146" style="fill:#ffffff;fill-opacity:1;fill-rule:nonzero;stroke:#000000;stroke-width:3.43935084;stroke-linecap:butt;stroke-linejoin:miter;stroke-miterlimit:4;stroke-dasharray:none;stroke-opacity:1" d="m -334.91632,-11.827833 c 0.44609,-0.89214 1.33862,-2.78763 3.56856,-2.78763 2.22993,0 52.62877,8.2e-4 53.85577,8.2e-4 1.22577,0 4.12542,1.22577 3.67935,3.45571 -0.44607,2.2299301 -1.44942,6.0213301 -1.67307,6.8018301 -0.22078,0.78054 -0.44607,1.89549 1.89549,1.89549 2.34196,0 179.852866,0.002 181.748346,0.002 1.89549,0 8.14005,0.44605 5.91011,6.24454 -2.23075,5.79767 -12.15384,32.3357199 -13.04639,33.8959399 -0.89214,1.56143 -1.783866,2.56559 -7.024256,2.56559 -5.24161,-10e-4 -49.3959,-10e-4 -51.29138,-10e-4 -1.89549,0 -3.56774,-0.11023 -4.68353,2.34197 -1.11496,2.45235 -9.03177,18.50838 -9.92309,20.06981 -0.89254,1.56104 -1.33861,3.67937 -6.13293,3.67937 -4.79432,0 -158.55604,0.0409 -160.11708,-0.001 -5.27759,-0.0736 -6.24372,-2.11915 -7.91678,-2.11915 -1.67225,0 -3.90219,0 -4.79433,0 -0.89256,0 -2.89883,-0.89211 -3.79139,-2.67599 -0.89132,-1.78385 -1.22659,-2.78805 -1.67183,-3.67937 -0.44608,-0.89253 -1.56146,-1.78385 -3.34613,-1.78385 -1.78388,0 -4.01381,0 -5.35118,0 -1.33862,0 -2.89966,-0.66972 -3.1225,-3.2341 -0.22079,-2.56439 -0.55687,-4.79432 -0.55687,-5.79849 0,-1.00335 -0.33527,-2.34075 -1.78467,-3.67934 -1.44943,-1.33783 -9.25462,-7.80521 -10.03512,-8.69732 -0.78054,-0.89132 -2.22994,-2.0067 -1.11499,-4.68272 1.11499,-2.67602 14.71866,-27.8758499 15.49916,-29.3252499 0.78054,-1.44901 2.78805,-2.67602 5.01798,-2.67602 2.22994,0 17.95152,0 19.06647,0 1.11498,0 2.78805,0 3.34492,-1.33737 0.55808,-1.3378 3.79136,-8.4740801 3.79136,-8.4740801 z"/>
      <path id="path12148" style="fill:#000000;fill-opacity:1;fill-rule:nonzero;stroke:none" d="m -329.56431,-6.2906329 c 0.37207,-0.74246 0.89257,-2.30392 3.71738,-2.30392 2.82403,0 39.02592,0 40.21448,0 2.15635,0 3.56856,0.81854 3.04767,2.37958 -0.52008,1.56022 -2.08111,7.3591 -2.37877,7.95401 -0.29847,0.59367 -1.26379,2.22994 1.2638,2.22994 2.52718,0 184.424356,0.002 186.134216,0.002 2.89965,0 4.16222,0.7425 3.12248,3.04727 -1.04137,2.30474 -9.812286,24.1584399 -10.258766,24.9770199 -0.44607,0.81769 -0.6689,1.56022 -3.3449,1.56022 -2.676,0 -52.25753,-0.0409 -53.15007,0 -1.85788,0.0736 -3.19608,0.0736 -4.01381,1.26377 -0.81732,1.18897 -11.37333,22.671 -11.8198,23.34075 -0.44525,0.6689 -0.89132,1.4862 -3.49373,1.4862 -2.60119,0 -155.06229,-0.002 -156.32568,-0.002 -2.30396,0 -3.65157,-0.60224 -4.75752,-1.4126 -0.37207,-0.29863 -1.56022,-1.04015 -1.56022,-1.04015 0,0 -4.23745,1.70905 -4.90635,2.08111 -0.66972,0.37207 -2.75083,1.04015 -2.602,-1.04096 0.14719,-2.08111 0.44605,-5.12877 0.44605,-5.12877 l -6.24372,-4.6087 c 0,0 -2.67602,1.04015 -3.71738,1.3378 -1.04014,0.29863 -2.67602,0.52007 -2.52637,-1.71029 0.14719,-2.22993 0.22078,-6.54098 0.22078,-6.54098 0,0 -10.10953,-8.47366 -10.85323,-8.99497 -0.7425,-0.52008 -1.11417,-1.4862 -0.6689,-2.60119 0.44648,-1.11495 11.44854,-22.5982199 11.96861,-23.4895399 0.52007,-0.89256 1.48623,-2.22993 3.9398,-2.22993 2.45278,0 20.73956,0 21.55728,0 0.8173,0 2.00709,-0.14719 2.75001,-1.63506 0.74371,-1.48744 4.23703,-8.92095 4.23703,-8.92095 z"/>
      <path id="path12150" style="fill:#f471b4;fill-opacity:1;fill-rule:nonzero;stroke:none" d="m -326.21899,-3.5766029 c 0.22471,-0.55808 0.96612,-1.11495 1.67264,-1.11495 1.00335,0 6.69023,0 7.3587,0 0.6689,0 1.00335,0.55687 0.89257,1.11495 -0.11023,0.55687 -1.44944,3.67937 -1.67307,4.12543 -0.22078,0.44647 -0.66851,0.66889 -1.44943,0.66889 -0.7805,0 -2.22994,0 -2.22994,0 0,0 -1.00416,1.95561 -1.11495,2.34197 -0.22079,0.78053 -0.6129,0.83653 -1.22659,0.78053 -0.78053,0 -1.56146,0 -2.00751,0 -0.44527,0 -0.72451,-0.33526 -0.50127,-0.89256 0.24139,-0.60387 0.78093,-2.22994 0.78093,-2.22994 -0.78093,0.11023 -1.47763,0 -1.81169,0 -0.33526,0 -1.03236,0 -0.80873,-0.66889 0.22079,-0.66848 2.11834,-4.12543 2.11834,-4.12543 z"/>
      <path id="path12152" style="fill:#f471b4;fill-opacity:1;fill-rule:nonzero;stroke:none" d="m -313.1178,-4.0226529 c 0.11023,-0.22471 0.44605,-0.7805 0.94814,-0.7805 0.50208,0 2.56438,0 3.01086,0 0.44607,0 0.61289,0.44605 0.44607,0.83653 -0.16763,0.38839 -0.83653,1.89549 -0.94815,2.11791 -0.11039,0.22471 0.0409,0.55808 0.36389,0.55808 0.33526,0 1.36641,0 1.64485,0 0.27803,0 0.55728,-0.1678 0.72491,-0.50208 0.16764,-0.33527 0.89132,-2.1183 1.00294,-2.39757 0.11039,-0.27803 0.33527,-0.61287 0.78093,-0.61287 0.44607,0 3.01045,0 3.28889,0 0.27802,0 0.61411,0.33523 0.44607,0.7245 -0.16764,0.38839 -3.26109,7.63837 -3.37271,7.86079 -0.11039,0.22471 -0.36389,0.58589 -0.91953,0.61411 -0.38842,0 -2.92746,0 -3.20589,0 -0.27803,0 -0.5303,-0.22503 -0.47428,-0.55811 0.0572,-0.33527 0.16763,-0.6689 0.27803,-1.05895 0.0777,-0.26985 0,-0.44648 -0.38842,-0.44648 -0.39251,0 -1.39463,0 -1.72908,0 -0.33527,0 -0.52907,0.30648 -0.61287,0.44648 -0.14327,0.23714 -0.55769,0.86433 -0.66851,1.08675 -0.11023,0.22079 -0.22471,0.47428 -0.83653,0.47428 -0.3966,0 -2.5096,0 -2.73202,0 -0.22504,0 -0.61287,-0.22503 -0.44648,-0.6689 0.16747,-0.44605 3.40092,-7.69397 3.40092,-7.69397 z"/>
      <path id="path12154" style="fill:#f471b4;fill-opacity:1;fill-rule:nonzero;stroke:none" d="m -298.39918,-3.9388529 c 0.13902,-0.30648 0.47388,-0.86433 1.3652,-0.86433 0.89254,0 7.13628,0 7.49976,0 0.36389,0 0.6967,0.11023 0.58467,0.47388 -0.11039,0.36389 -0.47387,1.31082 -0.55768,1.50544 -0.0818,0.19625 -0.27803,0.22078 -0.52907,0.22078 -0.38842,0 -3.2341,0 -3.51295,0 -0.27803,0 -0.36389,0.19626 -0.47387,0.36389 -0.11039,0.16747 -0.19625,0.61287 -0.24941,0.80749 -0.0572,0.19625 0.0572,0.44608 0.33527,0.47428 0.27803,0.0409 1.05895,0.0409 1.2548,0.0409 0.55687,0 0.54379,0.3966 0.50208,0.5851 -0.0572,0.24924 -0.13901,0.44605 -0.16763,0.55808 -0.0409,0.11023 -0.36389,0.24957 -0.58508,0.24957 -0.22488,0 -1.56104,0 -1.72908,0 -0.16764,0 -0.36389,0.13901 -0.47387,0.27803 -0.1104,0.13901 -0.61289,1.3096 -0.19626,1.3096 0.41827,0 2.25774,0 2.50837,0 0.52989,-0.0409 0.83654,0.27803 0.6689,0.7249 -0.16763,0.44608 -0.52907,1.08675 -0.61288,1.25439 -0.0859,0.16779 -0.27803,0.33526 -0.6967,0.33526 -0.41827,0 -7.83299,0 -8.08444,0 -0.24941,0 -0.69711,-0.27802 -0.55728,-0.6967 0.13901,-0.41825 3.70756,-7.61014 3.70756,-7.61014 z"/>
      <path id="path12156" style="fill:#f471b4;fill-opacity:1;fill-rule:nonzero;stroke:none" d="m -270.35285,10.267487 c 0.33527,-0.7408599 1.14482,-2.0880499 3.29993,-2.0880499 2.15634,0 17.24214,0 18.11751,0 0.87538,0 1.6837,0.26985 1.41426,1.14482 -0.26985,0.8753899 -1.14482,3.1662299 -1.34638,3.6372399 -0.20444,0.47143 -0.67381,0.53927 -1.27974,0.53927 -0.94325,0 -7.81296,0 -8.48676,-10e-4 -0.67381,0 -0.87538,0.47222 -1.14482,0.8766 -0.26985,0.40477 -0.47141,1.48129 -0.60593,1.9523 -0.13493,0.47225 0.13492,1.07819 0.80832,1.14482 0.67299,0.0697 2.55948,0.0697 3.03049,0.0697 1.34679,0 1.3149,0.95428 1.21187,1.41466 -0.13493,0.60594 -0.33527,1.07695 -0.40478,1.3464 -0.0695,0.26985 -0.8766,0.60594 -1.41466,0.60594 -0.53888,0 -3.77217,0 -4.17612,0 -0.40478,0 -0.87579,0.33935 -1.144,0.6738 -0.26985,0.33527 -1.48253,3.16541 -0.47224,3.16541 1.0103,0 5.45627,0.0409 6.06098,0 1.28056,-0.0654 2.02142,0.67381 1.61705,1.75075 -0.40477,1.07816 -1.27974,2.62735 -1.48212,3.0317 -0.20035,0.40478 -0.67299,0.80752 -1.68288,0.80752 -1.01153,0 -18.92624,0 -19.53177,0 -0.60593,0 -1.6841,-0.6738 -1.34761,-1.68412 0.33527,-1.00989 8.95777,-18.38573 8.95777,-18.38573 z"/>
      <path id="path12158" style="fill:#f471b4;fill-opacity:1;fill-rule:nonzero;stroke:none" d="m -358.97215,10.201677 c 0.49924,-0.8255099 0.77563,-1.7630199 2.71528,-1.7630199 1.93921,0 19.77831,10e-4 20.49912,10e-4 0.71959,0 1.82761,0.16355 1.27362,1.4862 -0.55403,1.3226599 -6.59332,12.5025899 -7.03652,13.1633399 -0.44321,0.66073 -1.49523,1.4862 -3.15724,1.4862 -1.66204,0 -4.37689,0 -5.43012,0 -1.05202,0 -1.82761,-0.11023 -2.43764,0.99109 -0.60881,1.10229 -1.88361,3.41481 -2.32685,3.96596 -0.44321,0.55115 -0.9412,0.88151 -2.16,0.88151 -1.2188,0 -10.13854,0.11023 -10.80335,0.11023 -0.66485,0 -1.21884,-0.33118 -0.94245,-1.10187 0.27803,-0.77072 9.80615,-19.22023 9.80615,-19.22023 z"/>
      <path id="path12160" style="fill:#000000;fill-opacity:1;fill-rule:nonzero;stroke:none" d="m -357.13923,20.351277 c -10e-4,-1.82886 1.65795,-3.31015 3.70429,-3.31015 2.04513,0 3.7043,1.48335 3.70511,3.31217 0,1.82886 -1.65792,3.31015 -3.70429,3.31015 -2.04634,-0.001 -3.70511,-1.48332 -3.70511,-3.31217 z"/>
      <path id="path12162" style="fill:#f471b4;fill-opacity:1;fill-rule:nonzero;stroke:none" d="m -211.27958,10.250307 c 0.50208,-0.8360999 0.78051,-1.7834499 2.73202,-1.7834499 1.9515,0 19.90342,0 20.62792,0 0.72451,0 1.83988,0.16747 1.2826,1.50503 -0.55809,1.3386199 -6.63502,12.6551099 -7.08108,13.3252599 -0.44526,0.66847 -1.50544,1.505 -3.17727,1.505 -1.67307,0 -4.40427,0 -5.46322,0 -1.06018,0 -1.8407,-0.11023 -2.45359,1.00335 -0.61288,1.11499 -1.89548,3.45652 -2.34155,4.01379 -0.44648,0.55811 -0.94734,0.89214 -2.17433,0.89214 -1.22659,0 -10.20235,0.11022 -10.87125,0.11022 -0.6689,0 -1.22699,-0.33526 -0.94815,-1.11495 0.27803,-0.78053 9.8679,-19.45694 9.8679,-19.45694 z"/>
      <path id="path12164" style="fill:#000000;fill-opacity:1;fill-rule:nonzero;stroke:none" d="m -209.39473,20.383167 c -10e-4,-1.82844 1.65794,-3.31097 3.7043,-3.31015 2.04513,0 3.70429,1.48335 3.70511,3.31221 0,1.82761 -1.65794,3.31015 -3.7043,3.31015 -2.04635,-0.001 -3.70511,-1.48335 -3.70511,-3.31221 z"/>
      <path id="path12166" style="fill:#f471b4;fill-opacity:1;fill-rule:nonzero;stroke:none" d="m -330.29781,10.451077 c 0.54912,-0.7633599 1.20697,-2.0181399 3.23535,-2.0181399 2.02917,0 20.12256,0 21.10996,0 0.98618,0 2.3575,0.54584 1.48008,2.0729299 -0.87742,1.52833 -9.10167,17.73727 -9.59557,18.50184 -0.49309,0.76376 -1.20576,1.47315 -2.63144,1.47315 -1.42611,0 -19.24516,-8.2e-4 -20.67045,-8.2e-4 -1.42654,0 -3.12535,-0.81854 -2.19438,-2.78314 0.93263,-1.96418 9.26645,-17.24582 9.26645,-17.24582 z"/>
      <path id="path12168" style="fill:#000000;fill-opacity:1;fill-rule:nonzero;stroke:none" d="m -328.04373,20.357427 c -0.001,-1.82886 1.65792,-3.31015 3.70429,-3.31015 2.04513,8.1e-4 3.7043,1.48332 3.70512,3.31217 0,1.82844 -1.65796,3.30976 -3.7043,3.30976 -2.04637,0 -3.70511,-1.48335 -3.70511,-3.31178 z"/>
      <path id="path12170" style="fill:#f471b4;fill-opacity:1;fill-rule:nonzero;stroke:none" d="m -298.5112,8.1872271 c 0.66971,0 3.903,0 4.34907,0 0.44525,0 0.94733,0.44605 0.72491,0.89128 -0.33527,0.9485599 -2.56439,5.4084399 -2.67641,5.7428899 -0.1104,0.33526 0.38842,1.11498 1.22699,1.11498 0.83531,0 1.83947,-0.5573 2.17392,-1.11498 0.33527,-0.55727 0.89173,-1.83985 1.56145,-1.83985 0.66849,0 2.73079,0 3.12126,0 0.38841,0 0.7245,0.55808 0.55809,1.00331 -0.16763,0.44609 -0.33526,0.89214 -0.44648,1.28262 -0.11039,0.38842 -0.11039,1.00335 1.3378,1.00335 0.66972,0 1.11497,-0.0572 1.45024,-0.50127 0.33526,-0.44608 3.2893,-6.1329299 3.51172,-6.5790199 0.22487,-0.44648 0.89254,-1.00335 1.67306,-1.00335 0.78052,0 3.73537,0 4.23745,0 0.50086,0 1.22577,0.22079 0.94734,0.89257 -0.27803,0.66847 -9.92432,19.4569399 -10.20276,20.0138099 -0.27802,0.55808 -0.94733,1.33862 -2.11831,1.33862 -1.17058,0 -5.40803,0 -6.13294,0 -0.7245,0 -0.83653,-0.55811 -0.83653,-1.17098 0,-0.61372 0.27802,-1.44944 -0.61289,-1.45025 -0.89213,0 -3.01045,0 -3.62415,0 -0.61289,0 -1.17017,0.16779 -1.50462,0.66971 -0.33526,0.50087 -0.66971,0.89132 -0.94815,1.22577 -0.27803,0.33527 -0.61288,0.72451 -1.67184,0.72451 -1.06018,0 -6.02131,0 -6.57941,0 -1.00417,0 -1.67184,-0.83654 -1.05896,-2.06231 0.61289,-1.22658 9.86831,-18.6204099 10.09073,-19.1224899 0.22487,-0.50209 0.78052,-1.05896 1.44942,-1.05896 z"/>
      <path style="fill:#f471b4;fill-opacity:1;fill-rule:nonzero;stroke:none" d="m -238.92773,8.1679688 c -2.02918,0 -2.31773,0.9590506 -2.83985,1.8066406 l 0,0.00195 c 0,0 -9.97338,18.9221506 -10.26367,19.7128906 -0.2907,0.79035 0.29044,1.128906 0.98633,1.128906 0.69547,0 6.89818,-0.113281 8.17383,-0.113281 1.27565,0 1.87578,-0.7162 2.33984,-1.28125 0.46406,-0.56504 0.17273,-0.752722 0.81055,-1.882812 0.54777,-0.970163 2.2965,-0.676492 3.48828,-0.570313 0.0332,0.03635 2.10054,2.29511 2.44531,2.660156 0.34753,0.36634 1.10066,1.101563 1.59375,1.101563 l 5.6543,0 c 0.83977,0 0.66677,-0.253335 0.78125,-0.677734 0.11571,-0.42315 -0.98568,-2.089246 -1.88477,-3.416016 -0.85619,-1.264834 0.39918,-1.796734 0.82227,-1.919922 0.003,-10e-6 0.007,-0.002 0.01,-0.002 1.73889,0 2.84063,-0.847491 3.30469,-1.525391 0.46324,-0.6775 6.7831,-12.142647 7.36328,-13.4980467 0.57976,-1.35372 -0.58045,-1.5253906 -1.33398,-1.5253906 l -21.45117,0 z" transform="translate(-7.3563764e-6,0)" id="path12172"/>
      <path id="path12174" style="fill:#000000;fill-opacity:1;fill-rule:nonzero;stroke:none" d="m -241.18869,19.769447 c 0,-1.85297 1.72499,-3.35388 3.85312,-3.35307 2.12731,0 3.85312,1.50216 3.85312,3.35513 0,1.85257 -1.72376,3.35388 -3.85189,3.35388 -2.12813,-0.001 -3.85312,-1.50337 -3.85435,-3.35594 z"/>
      <path style="fill:#f471b4;fill-opacity:1;fill-rule:nonzero;stroke:none" d="m -252.34961,33.580078 c -2.03908,0 -2.33186,0.976756 -2.85547,1.837891 -0.002,0.003 -10.03004,19.220881 -10.32031,20.023437 -0.29152,0.80464 0.29263,1.148438 0.99219,1.148438 0.69997,0 6.9381,-0.115235 8.2207,-0.115235 1.28179,0 1.88351,-0.726701 2.34961,-1.300781 0.46488,-0.5728 0.17449,-0.764019 0.81641,-1.912109 0.55012,-0.984723 2.30937,-0.687984 3.50781,-0.580078 0.033,0.03654 2.11013,2.333998 2.45898,2.703125 0.3504,0.37328 1.10644,1.11914 1.60157,1.11914 l 5.68554,0 c 0.84385,0 0.67263,-0.258123 0.78711,-0.689453 0.11693,-0.42892 -0.9929,-2.12032 -1.89648,-3.46875 -0.86079,-1.285535 0.39959,-1.827428 0.82617,-1.951172 0.003,-1e-5 0.007,-0.002 0.01,-0.002 1.74871,0 2.85812,-0.860298 3.32422,-1.548828 0.4661,-0.68891 6.81931,-12.337364 7.40235,-13.714844 0.58304,-1.37744 -0.58223,-1.548828 -1.33985,-1.548828 l -21.57031,0 z" id="path12178" transform="translate(-7.3563764e-6,0)"/>
      <path id="path12180" style="fill:#000000;fill-opacity:1;fill-rule:nonzero;stroke:none" d="m -254.85001,45.452157 c 0,-1.88159 1.73399,-3.40704 3.87315,-3.40704 2.13999,0.001 3.8752,1.52709 3.8752,3.40907 0,1.8824 -1.73398,3.40746 -3.87315,3.40667 -2.1404,0 -3.8752,-1.5263 -3.8752,-3.4087 z"/>
      <path id="path12184" style="fill:#f471b4;fill-opacity:1;fill-rule:nonzero;stroke:none" d="m -182.30677,9.6934371 c 0.29438,-0.52004 0.59407,-1.4862 1.56103,-1.4862 0.96655,0 6.31775,0 6.83864,0 0.52007,0 1.26379,-0.37206 0.7429,0.7425 -0.52007,1.1149499 -1.78387,4.3122899 -2.00629,4.9811499 -0.22487,0.6689 -0.14719,1.18901 0.89132,1.18901 1.04097,0 2.82483,0 3.71738,0 0.89132,0 1.56022,-0.0736 2.15511,-0.96655 0.5949,-0.89132 2.45359,-4.6822999 2.67601,-5.0535399 0.22487,-0.37207 0.22487,-0.96737 1.33861,-0.96737 1.11497,0 6.02132,0 6.5414,0 0.51966,0 1.26338,0 0.66849,1.04096 -0.5949,1.0413599 -9.20841,17.9625399 -9.66347,18.6584199 -1.26379,1.93271 -2.08111,2.89884 -4.23745,2.89884 -5.42601,0 -17.91472,0.0736 -19.47575,0.0736 -1.11497,0 -1.48622,-1.18979 -0.81773,-2.75001 0.6689,-1.56103 9.0698,-18.3607599 9.0698,-18.3607599 z"/>
      <path id="path12186" style="fill:#f471b4;fill-opacity:1;fill-rule:nonzero;stroke:none" d="m -152.64707,9.3222271 c 0.29847,-0.59491 0.37206,-1.11499 1.85746,-1.11499 1.48744,0 19.99705,0.0736 21.0372,0.0736 1.04096,0 1.93228,-0.14719 1.41221,0.96616 -0.52007,1.1149499 -2.0071,4.5350699 -2.22993,4.9799099 -0.22488,0.44648 -0.29847,1.04139 -2.15594,1.04139 -1.85868,0 -2.52758,-0.001 -3.49373,0 -0.96614,-0.001 -1.63504,0.37206 -1.85868,0.89132 -0.22488,0.52089 -0.6689,1.78467 -0.89132,2.30474 -0.22488,0.52007 0.0736,0.89132 0.96614,0.89132 0.89254,0 3.04766,0 3.71615,0 0.67012,0 1.56144,0.37206 1.1902,1.26381 -0.37207,0.89253 -1.56145,3.27129 -1.78387,3.8662 -0.22487,0.59367 -0.66972,1.11495 -1.78509,1.11495 -1.11497,0 -4.60829,0 -5.42602,0 -0.81772,0 -1.11496,0.7425 -1.41262,1.41222 -0.29847,0.66889 -0.66849,1.26381 -0.89132,1.70904 -0.22487,0.44609 -0.59489,1.11623 -1.78468,1.11623 -1.18897,-0.001 -13.00837,-0.001 -14.04851,-0.001 -1.04138,0 -1.8587,-0.44526 -1.48745,-1.48619 0.37207,-1.041 9.0698,-19.0296999 9.0698,-19.0296999 z"/>
      <path id="path12188" style="fill:#f471b4;fill-opacity:1;fill-rule:nonzero;stroke:none" d="m -123.65668,9.3222271 c 0.29847,-0.5941 0.37207,-1.11499 1.85787,-1.11499 1.48703,0 19.99583,0.0736 21.03679,0.0736 1.041366,0 1.932686,-0.14719 1.412616,0.96616 -0.52007,1.1149499 -2.007506,4.5350699 -2.229926,4.9799099 -0.22488,0.44648 -0.29847,1.04139 -2.15634,1.04139 -1.85828,0 -2.52718,0 -3.49333,0 -0.96655,0 -1.63504,0.37206 -1.85787,0.89214 -0.22487,0.52007 -0.66971,1.78385 -0.89254,2.30392 -0.22488,0.52007 0.0736,0.89256 0.96655,0.89256 0.89132,0 3.04725,0 3.71615,0 0.6689,0 1.56104,0.37207 1.18979,1.26378 -0.37207,0.89132 -1.56104,3.27008 -1.78469,3.86499 -0.22078,0.59488 -0.6689,1.11495 -1.78386,1.11495 -1.11497,0 -4.6087,0 -5.42602,0 -0.81772,0 -1.11496,0.74374 -1.41262,1.41222 -0.29847,0.66889 -0.6689,1.26381 -0.89132,1.71028 -0.22487,0.44606 -0.59489,1.11496 -1.78468,1.11496 -1.18897,0 -13.00878,0 -14.04892,0 -1.04097,0 -1.85828,-0.44648 -1.48704,-1.48745 0.37207,-1.04014 9.06939,-19.0296599 9.06939,-19.0296599 z"/>
      <path id="path12190" style="fill:#f471b4;fill-opacity:1;fill-rule:nonzero;stroke:none" d="m -313.0618,34.836027 c 0.33527,-0.61369 1.56104,-1.33862 2.56439,-1.33862 1.00293,0 20.34908,0 21.07399,0 0.72451,0 1.83947,0.55812 1.11497,2.17515 -0.72491,1.61625 -4.29346,8.36206 -4.5719,8.97578 -0.27803,0.61286 -0.78052,1.11495 -1.67306,1.11495 -0.89133,0 -10.87125,0 -11.9302,0 -1.05936,0 -5.01715,0.0572 -5.01715,3.73536 0,3.67937 5.54703,5.71387 9.03095,2.22994 -3.17727,0.72493 -4.6827,-3.3457 0.55769,-3.51252 1.33861,0 4.85033,0 5.63085,0 0.89132,0 0.94734,1.28258 0.50127,2.11912 -0.44525,0.83532 -2.50837,4.73832 -2.84282,5.2404 -0.33527,0.50127 -0.39251,0.94732 -2.00752,0.94732 -1.61623,0 -20.40428,0 -21.24081,0 -0.83611,0 -2.00709,-0.11023 -1.3934,-1.505 0.6129,-1.39383 10.20275,-20.18188 10.20275,-20.18188 z"/>
      <path id="path12192" style="fill:#f471b4;fill-opacity:1;fill-rule:nonzero;stroke:none" d="m -289.70308,48.383697 c 0.22487,-0.50208 0.66972,-1.33861 1.89549,-1.33861 1.22699,0 19.01169,10e-4 19.84822,10e-4 1.44942,0 1.95069,0.83532 1.50544,2.0063 -0.44607,1.17098 -2.34197,5.68646 -2.62122,6.18894 -0.27803,0.50208 -0.33527,1.28137 -1.83988,1.28137 -1.50503,0 -19.56857,0.0572 -20.45989,0.0572 -0.89255,0 -2.00751,0 -1.50543,-1.33861 0.50208,-1.33738 3.17727,-6.85663 3.17727,-6.85663 z"/>
      <path id="path12194" style="fill:#f471b4;fill-opacity:1;fill-rule:nonzero;stroke:none" d="m -273.53421,35.728587 c 1.22577,-1.61706 6.68981,-3.01047 8.69651,-1.56103 2.0071,1.449 3.40051,4.06939 0.66849,6.18772 -2.73079,2.11912 -7.63714,4.79514 -10.14674,5.07356 -2.56439,-0.72451 -6.88238,-3.08119 -9.08656,-5.68646 -2.45358,-2.89884 0.16763,-5.46404 1.67225,-6.13294 1.50502,-0.6689 5.9101,-1.05934 8.19605,2.11915 z"/>
      <path id="path12196" style="fill:#f471b4;fill-opacity:1;fill-rule:nonzero;stroke:none" d="m -224.49075,34.833997 c 0.28212,-0.56995 0.45343,-1.31039 1.3607,-1.31039 0.90726,0 15.76451,0 16.27477,0 0.51107,0 1.30427,0.22897 0.79442,1.31039 -0.51108,1.08309 -3.93776,8.10572 -4.31023,8.94591 -0.68076,1.53814 -0.56709,2.56439 1.24785,2.56439 0.73636,0 2.04104,0.11448 2.83464,0.11448 0.7936,0 1.36151,0.51271 0.85166,1.53896 -0.51108,1.02542 -3.45979,7.12238 -3.6863,7.57828 -0.22897,0.45544 -0.33936,0.91134 -1.92861,0.91134 -0.96328,0 -20.35848,0.0409 -21.32176,0 -1.92738,-0.0572 -2.43846,-1.31039 -1.64404,-3.13434 0.7936,-1.82271 9.5269,-18.51859 9.5269,-18.51859 z"/>
      <path id="path12198" style="fill:#f471b4;fill-opacity:1;fill-rule:nonzero;stroke:none" d="m -194.71738,34.912927 c 0.43135,-0.63377 0.78747,-1.26175 2.92459,-1.26175 2.13835,0 19.29422,0 20.0821,0.001 0.78624,-0.001 1.74257,0.45793 1.29364,1.3186 -0.45016,0.85943 -1.80104,3.61146 -2.08152,4.01257 -0.28212,0.40069 -0.78747,0.91749 -1.85665,0.91749 -1.06876,0 -4.38791,0.0409 -5.23139,0 -1.40567,-0.0572 -2.6433,1.83455 -1.01234,3.03867 1.63136,1.20369 2.47484,1.94821 3.03784,2.2929 0.5626,0.34344 1.23763,1.77649 0.67463,2.92336 -0.56219,1.14727 -3.26232,6.24906 -3.54361,6.87991 -0.28212,0.6309 -0.90032,1.43308 -2.6433,1.43308 -1.7438,0 -19.91201,0 -20.53103,0 -0.61861,0 -1.57494,-0.2862 -1.12478,-1.54795 0.45016,-1.26175 3.2063,-6.76504 3.43077,-7.33869 0.22487,-0.57322 0.95633,-0.9743 1.79981,-0.9743 0.8443,0 4.16344,-0.0409 5.00693,0 2.53045,0.11448 3.59962,-1.60519 1.40526,-3.09551 -0.84348,-0.5728 -2.36159,-1.37663 -2.86858,-1.77774 -0.50617,-0.40068 -1.40567,-1.20369 -1.01234,-2.75122 0.3925,-1.54795 1.74379,-3.32568 2.24997,-4.07063 z"/>
      <path id="path12200" style="fill:#fff536;fill-opacity:1;fill-rule:nonzero;stroke:none" d="m -361.52835,36.897547 5.57482,0 3.34616,-4.75671 2.52635,4.68269 6.31856,0.14719 -5.12877,3.19609 0.96615,5.57607 -4.68353,-2.89966 -6.0949,2.75001 1.63503,-5.50001 -4.45987,-3.19731 z"/>
      <path id="path12202" style="fill:#fff536;fill-opacity:1;fill-rule:nonzero;stroke:none" d="m -339.45142,36.898357 5.57525,0 3.34574,-4.75752 2.52634,4.68269 6.31899,0.14719 -5.12877,3.1973 0.96612,5.57486 -4.68268,-2.89966 -6.09575,2.75083 1.63506,-5.50083 -4.4603,-3.19649 z"/>
      <path id="path12204" style="fill:#fff536;fill-opacity:1;fill-rule:nonzero;stroke:none" d="m -350.89875,47.601957 5.57525,0 3.34492,-4.75713 2.52716,4.68353 6.31856,0.14719 -5.12834,3.19606 0.96612,5.57486 -4.6835,-2.89883 -6.09532,2.75 1.63545,-5.50083 -4.4603,-3.19649 z"/>
    </g>
  </g>
</svg>